<?xml version="1.0" encoding="iso-8859-1"?>
<svg xmlns="http://www.w3.org/2000/svg" data-name="" viewBox="0 0 128 128" x="0px" y="0px" width="100px" height="100px"><path d="M46,8H19.8a10,10,0,1,0,0,4H44V26h4V10A2,2,0,0,0,46,8Z"/><path d="M10,74a10,10,0,0,0,9.8-8H30V62H19.8A10,10,0,1,0,10,74Z"/><path d="M10,128a10,10,0,0,0,9.8-8H46a2,2,0,0,0,2-2V104H44v12H19.8A10,10,0,1,0,10,128Z"/><path d="M118,0a10,10,0,0,0-9.8,8H82a2,2,0,0,0-2,2V26h4V12h24.2A10,10,0,1,0,118,0Z"/><path d="M118,54a10,10,0,0,0-9.8,8H98v4h10.2A10,10,0,1,0,118,54Z"/><path d="M118,108a10,10,0,0,0-9.8,8H84V104H80v14a2,2,0,0,0,2,2h26.2a10,10,0,1,0,9.8-12Z"/><path d="M64,25c-11.54,0-21.09,8.91-21.09,19.92V60.16H40.72a7.21,7.21,0,0,0-7.19,7.19V84.19A15.86,15.86,0,0,0,49.35,100H78.65A15.86,15.86,0,0,0,94.47,84.19V67.34a7.21,7.21,0,0,0-7.19-7.19H85.09V44.92C85.09,33.91,75.54,25,64,25Zm2.34,55.76v4.59a2.34,2.34,0,0,1-4.69,0V80.76a5.86,5.86,0,1,1,4.69,0ZM49.94,60.16V46.09a14.06,14.06,0,0,1,28.13,0V60.16Z"/></svg>