<svg id="Layer_1" data-name="Layer 1" xmlns="http://www.w3.org/2000/svg" xmlns:xlink="http://www.w3.org/1999/xlink" viewBox="0 0 148 148"><defs><clipPath id="clip-path"><circle cx="74" cy="74" r="74" style="fill:none"/></clipPath></defs><title>icon</title><g style="clip-path:url(#clip-path)"><polygon points="-144.28 -28.7 233.23 378.38 233.23 307.64 -113.79 -63.83 -144.28 -28.7" style="fill:#7763f3"/><polygon points="-115.99 -58.91 222.08 301.79 222.08 238.16 -88.22 -90.89 -115.99 -58.91" style="fill:#7179ec"/><polygon points="-85.09 -83.42 216.04 234.86 216.04 178.37 -60.38 -111.91 -85.09 -83.42" style="fill:#6b8fe4"/><polygon points="-56.62 -105.49 207.67 171.53 207.67 129.12 -38.15 -126.86 -56.62 -105.49" style="fill:#65a4dd"/><polygon points="-30.82 -114.33 199.81 124.09 199.81 95.76 -18.59 -128.41 -30.82 -114.33" style="fill:#5fbad5"/><path d="M74.28,43.48c-9,0-16.48,7-16.48,15.56V71H56.09a5.62,5.62,0,0,0-5.61,5.62V89.72a12.38,12.38,0,0,0,12.35,12.35h22.9A12.39,12.39,0,0,0,98.08,89.72V76.56A5.62,5.62,0,0,0,92.47,71H90.76V59C90.76,50.44,83.28,43.48,74.28,43.48ZM76.11,87v3.59a1.84,1.84,0,0,1-3.67,0V87a4.58,4.58,0,1,1,3.67,0ZM63.28,71V60a11,11,0,0,1,22,0V71Z" style="fill:#fff"/><path d="M32.09,81.76a7.82,7.82,0,0,0,7.66-6.25h8V72.39h-8a7.81,7.81,0,1,0-7.66,9.37Z" style="fill:#fff"/><path d="M60.22,30.2H39.75a7.8,7.8,0,1,0,0,3.13H58.66V44.26h3.12V31.76a1.56,1.56,0,0,0-1.56-1.56Z" style="fill:#fff"/><path d="M32.09,124a7.82,7.82,0,0,0,7.66-6.25H60.22a1.56,1.56,0,0,0,1.56-1.56V105.2H58.66v9.37H39.75A7.81,7.81,0,1,0,32.09,124Z" style="fill:#fff"/><path d="M116.47,24a7.8,7.8,0,0,0-7.66,6.25H88.34a1.56,1.56,0,0,0-1.56,1.56v12.5H89.9V33.33h18.91A7.81,7.81,0,1,0,116.47,24Z" style="fill:#fff"/><path d="M116.47,66.14a7.8,7.8,0,0,0-7.66,6.25h-8v3.12h8a7.81,7.81,0,1,0,7.66-9.37Z" style="fill:#fff"/><path d="M116.47,108.33a7.79,7.79,0,0,0-7.66,6.24H89.9V105.2H86.78v10.94a1.56,1.56,0,0,0,1.56,1.56h20.47a7.81,7.81,0,1,0,7.66-9.37Z" style="fill:#fff"/></g></svg>